<svg width="60" height="70" fill="none" xmlns="http://www.w3.org/2000/svg"><path d="M34.341 27.099c1.666 0 2.978-1.472 2.978-3.216 0-1.798-1.312-3.215-2.978-3.215H19.858v28.667h14.483c1.666 0 2.978-1.472 2.978-3.216 0-1.798-1.312-3.215-2.978-3.215h-8.478V27.099h8.478z" fill="#FFCF25"/><path d="M20.38 70H0V0h37.292c13.903.033 19.3 8.033 21.263 12.82 1.701 4.098 1.897 8.688.589 12.852-1.44 4.59-4.22 7.476-6.379 9.312 2.192 1.836 4.94 4.754 6.379 9.311 1.308 4.164 1.112 8.721-.556 12.82-1.963 4.787-7.36 12.82-21.263 12.852C31.273 70 25.483 70 20.38 70zM9.094 62.787h28.165c7.426 0 12.333-2.82 14.623-8.394 1.047-2.524 1.177-5.311.36-7.868-1.237-3.868-3.828-5.77-5.594-7.148-.556-.426-1.047-.82-1.472-1.246a4.46 4.46 0 010-6.295c.425-.426.916-.787 1.505-1.246 1.766-1.344 4.383-3.344 5.56-7.082.818-2.557.688-5.377-.36-7.934-2.29-5.541-7.196-8.36-14.622-8.36H7.164v55.54l1.93.033z" fill="#FFCF25"/></svg>